<svg width="228" height="37" viewBox="0 0 228 37" fill="none" xmlns="http://www.w3.org/2000/svg">
<path d="M21.344 7.60799C21.152 7.94399 20.944 8.19199 20.72 8.35199C20.512 8.49599 20.248 8.56799 19.928 8.56799C19.592 8.56799 19.224 8.44799 18.824 8.20798C18.44 7.95199 17.976 7.67199 17.432 7.36799C16.888 7.06399 16.248 6.79199 15.512 6.55198C14.792 6.29599 13.936 6.16799 12.944 6.16799C12.048 6.16799 11.264 6.27999 10.592 6.50399C9.92 6.71199 9.352 7.00799 8.888 7.39199C8.44 7.77599 8.104 8.23999 7.88 8.78399C7.656 9.31199 7.544 9.89599 7.544 10.536C7.544 11.352 7.768 12.032 8.216 12.576C8.68 13.12 9.288 13.584 10.04 13.968C10.792 14.352 11.648 14.696 12.608 15C13.568 15.304 14.552 15.632 15.56 15.984C16.568 16.32 17.552 16.72 18.512 17.184C19.472 17.632 20.328 18.208 21.08 18.912C21.832 19.6 22.432 20.448 22.88 21.456C23.344 22.464 23.576 23.688 23.576 25.128C23.576 26.696 23.304 28.168 22.76 29.544C22.232 30.904 21.448 32.096 20.408 33.12C19.384 34.128 18.128 34.928 16.64 35.52C15.152 36.096 13.448 36.384 11.528 36.384C10.424 36.384 9.336 36.272 8.264 36.048C7.192 35.84 6.16 35.536 5.168 35.136C4.192 34.736 3.272 34.256 2.408 33.696C1.544 33.136 0.776004 32.512 0.104004 31.824L2 28.728C2.16 28.504 2.368 28.32 2.624 28.176C2.88 28.016 3.152 27.936 3.44 27.936C3.84 27.936 4.272 28.104 4.736 28.44C5.2 28.76 5.752 29.12 6.392 29.52C7.032 29.92 7.776 30.288 8.624 30.624C9.488 30.944 10.52 31.104 11.72 31.104C13.56 31.104 14.984 30.672 15.992 29.808C17 28.928 17.504 27.672 17.504 26.04C17.504 25.128 17.272 24.384 16.808 23.808C16.36 23.232 15.76 22.752 15.008 22.368C14.256 21.968 13.4 21.632 12.44 21.36C11.48 21.088 10.504 20.792 9.512 20.472C8.52 20.152 7.544 19.768 6.584 19.32C5.624 18.872 4.768 18.288 4.016 17.568C3.264 16.848 2.656 15.952 2.192 14.88C1.744 13.792 1.52 12.456 1.52 10.872C1.52 9.60799 1.768 8.37599 2.264 7.17599C2.776 5.97599 3.512 4.91199 4.472 3.98398C5.432 3.05599 6.616 2.31199 8.024 1.75199C9.432 1.19199 11.048 0.911987 12.872 0.911987C14.92 0.911987 16.808 1.23199 18.536 1.87199C20.264 2.51199 21.736 3.40799 22.952 4.55999L21.344 7.60799Z" fill="#141414"/>
<path d="M40.9516 25.488C39.2396 25.568 37.7996 25.72 36.6316 25.944C35.4636 26.152 34.5276 26.424 33.8236 26.76C33.1196 27.096 32.6156 27.488 32.3116 27.936C32.0076 28.384 31.8556 28.872 31.8556 29.4C31.8556 30.44 32.1596 31.184 32.7676 31.632C33.3916 32.08 34.1996 32.304 35.1916 32.304C36.4076 32.304 37.4556 32.088 38.3356 31.656C39.2316 31.208 40.1036 30.536 40.9516 29.64V25.488ZM27.3676 14.808C30.1996 12.216 33.6076 10.92 37.5916 10.92C39.0316 10.92 40.3196 11.16 41.4556 11.64C42.5916 12.104 43.5516 12.76 44.3356 13.608C45.1196 14.44 45.7116 15.44 46.1116 16.608C46.5276 17.776 46.7356 19.056 46.7356 20.448V36H44.0476C43.4876 36 43.0556 35.92 42.7516 35.76C42.4476 35.584 42.2076 35.24 42.0316 34.728L41.5036 32.952C40.8796 33.512 40.2716 34.008 39.6796 34.44C39.0876 34.856 38.4716 35.208 37.8316 35.496C37.1916 35.784 36.5036 36 35.7676 36.144C35.0476 36.304 34.2476 36.384 33.3676 36.384C32.3276 36.384 31.3676 36.248 30.4876 35.976C29.6076 35.688 28.8476 35.264 28.2076 34.704C27.5676 34.144 27.0716 33.448 26.7196 32.616C26.3676 31.784 26.1916 30.816 26.1916 29.712C26.1916 29.088 26.2956 28.472 26.5036 27.864C26.7116 27.24 27.0476 26.648 27.5116 26.088C27.9916 25.528 28.6076 25 29.3596 24.504C30.1116 24.008 31.0316 23.576 32.1196 23.208C33.2236 22.84 34.5036 22.544 35.9596 22.32C37.4156 22.08 39.0796 21.936 40.9516 21.888V20.448C40.9516 18.8 40.5996 17.584 39.8956 16.8C39.1916 16 38.1756 15.6 36.8476 15.6C35.8876 15.6 35.0876 15.712 34.4476 15.936C33.8236 16.16 33.2716 16.416 32.7916 16.704C32.3116 16.976 31.8716 17.224 31.4716 17.448C31.0876 17.672 30.6556 17.784 30.1756 17.784C29.7596 17.784 29.4076 17.68 29.1196 17.472C28.8316 17.248 28.5996 16.992 28.4236 16.704L27.3676 14.808Z" fill="#141414"/>
<path d="M57.8626 14.4C58.3586 13.904 58.8786 13.448 59.4226 13.032C59.9826 12.6 60.5666 12.24 61.1746 11.952C61.7986 11.648 62.4626 11.416 63.1666 11.256C63.8706 11.08 64.6386 10.992 65.4706 10.992C66.8146 10.992 68.0066 11.224 69.0466 11.688C70.0866 12.136 70.9506 12.776 71.6386 13.608C72.3426 14.424 72.8706 15.408 73.2226 16.56C73.5906 17.696 73.7746 18.952 73.7746 20.328V36H67.8466V20.328C67.8466 18.824 67.5026 17.664 66.8146 16.848C66.1266 16.016 65.0786 15.6 63.6706 15.6C62.6466 15.6 61.6866 15.832 60.7906 16.296C59.8946 16.76 59.0466 17.392 58.2466 18.192V36H52.3186V11.376H55.9426C56.7106 11.376 57.2146 11.736 57.4546 12.456L57.8626 14.4Z" fill="#141414"/>
<path d="M97.0524 16.584C96.8764 16.808 96.7004 16.984 96.5244 17.112C96.3644 17.24 96.1244 17.304 95.8044 17.304C95.5004 17.304 95.2044 17.216 94.9164 17.04C94.6284 16.848 94.2844 16.64 93.8844 16.416C93.4844 16.176 93.0044 15.968 92.4444 15.792C91.9004 15.6 91.2204 15.504 90.4044 15.504C89.3644 15.504 88.4524 15.696 87.6684 16.08C86.8844 16.448 86.2284 16.984 85.7004 17.688C85.1884 18.392 84.8044 19.248 84.5484 20.256C84.2924 21.248 84.1644 22.376 84.1644 23.64C84.1644 24.952 84.3004 26.12 84.5724 27.144C84.8604 28.168 85.2684 29.032 85.7964 29.736C86.3244 30.424 86.9644 30.952 87.7164 31.32C88.4684 31.672 89.3164 31.848 90.2604 31.848C91.2044 31.848 91.9644 31.736 92.5404 31.512C93.1324 31.272 93.6284 31.016 94.0284 30.744C94.4284 30.456 94.7724 30.2 95.0604 29.976C95.3644 29.736 95.7004 29.616 96.0684 29.616C96.5484 29.616 96.9084 29.8 97.1484 30.168L98.8524 32.328C98.1964 33.096 97.4844 33.744 96.7164 34.272C95.9484 34.784 95.1484 35.2 94.3164 35.52C93.5004 35.824 92.6524 36.04 91.7724 36.168C90.9084 36.296 90.0444 36.36 89.1804 36.36C87.6604 36.36 86.2284 36.08 84.8844 35.52C83.5404 34.944 82.3644 34.112 81.3564 33.024C80.3484 31.936 79.5484 30.608 78.9564 29.04C78.3804 27.456 78.0924 25.656 78.0924 23.64C78.0924 21.832 78.3484 20.16 78.8604 18.624C79.3884 17.072 80.1564 15.736 81.1644 14.616C82.1724 13.48 83.4204 12.592 84.9084 11.952C86.3964 11.312 88.1084 10.992 90.0444 10.992C91.8844 10.992 93.4924 11.288 94.8684 11.88C96.2604 12.472 97.5084 13.32 98.6124 14.424L97.0524 16.584Z" fill="#141414"/>
<path d="M110.777 36.384C108.633 36.384 106.985 35.784 105.833 34.584C104.697 33.368 104.129 31.696 104.129 29.568V15.816H101.609C101.289 15.816 101.017 15.712 100.793 15.504C100.569 15.296 100.457 14.984 100.457 14.568V12.216L104.417 11.568L105.665 4.84799C105.745 4.52799 105.897 4.27999 106.121 4.10398C106.345 3.92799 106.633 3.83999 106.985 3.83999H110.057V11.592H116.633V15.816H110.057V29.16C110.057 29.928 110.241 30.528 110.609 30.96C110.993 31.392 111.513 31.608 112.169 31.608C112.537 31.608 112.841 31.568 113.081 31.488C113.337 31.392 113.553 31.296 113.729 31.2C113.921 31.104 114.089 31.016 114.233 30.936C114.377 30.84 114.521 30.792 114.665 30.792C114.841 30.792 114.985 30.84 115.097 30.936C115.209 31.016 115.329 31.144 115.457 31.32L117.233 34.2C116.369 34.92 115.377 35.464 114.257 35.832C113.137 36.2 111.977 36.384 110.777 36.384Z" fill="#141414"/>
<path d="M131.137 10.992C132.961 10.992 134.617 11.288 136.105 11.88C137.609 12.472 138.889 13.312 139.945 14.4C141.017 15.488 141.84 16.816 142.417 18.384C142.993 19.952 143.281 21.704 143.281 23.64C143.281 25.592 142.993 27.352 142.417 28.92C141.84 30.488 141.017 31.824 139.945 32.928C138.889 34.032 137.609 34.88 136.105 35.472C134.617 36.064 132.961 36.36 131.137 36.36C129.297 36.36 127.625 36.064 126.121 35.472C124.617 34.88 123.329 34.032 122.257 32.928C121.201 31.824 120.377 30.488 119.785 28.92C119.209 27.352 118.921 25.592 118.921 23.64C118.921 21.704 119.209 19.952 119.785 18.384C120.377 16.816 121.201 15.488 122.257 14.4C123.329 13.312 124.617 12.472 126.121 11.88C127.625 11.288 129.297 10.992 131.137 10.992ZM131.137 31.8C133.185 31.8 134.697 31.112 135.673 29.736C136.665 28.36 137.161 26.344 137.161 23.688C137.161 21.032 136.665 19.008 135.673 17.616C134.697 16.224 133.185 15.528 131.137 15.528C129.057 15.528 127.513 16.232 126.505 17.64C125.513 19.032 125.017 21.048 125.017 23.688C125.017 26.328 125.513 28.344 126.505 29.736C127.513 31.112 129.057 31.8 131.137 31.8Z" fill="#141414"/>
<path d="M153.395 15.648C154.163 14.176 155.075 13.024 156.131 12.192C157.187 11.344 158.435 10.92 159.875 10.92C161.011 10.92 161.923 11.168 162.611 11.664L162.227 16.104C162.147 16.392 162.027 16.6 161.867 16.728C161.723 16.84 161.523 16.896 161.267 16.896C161.027 16.896 160.667 16.856 160.187 16.776C159.723 16.696 159.267 16.656 158.819 16.656C158.163 16.656 157.579 16.752 157.067 16.944C156.555 17.136 156.091 17.416 155.675 17.784C155.275 18.136 154.915 18.568 154.595 19.08C154.291 19.592 154.003 20.176 153.731 20.832V36H147.803V11.376H151.283C151.891 11.376 152.315 11.488 152.555 11.712C152.795 11.92 152.955 12.304 153.035 12.864L153.395 15.648Z" fill="#141414"/>
<path d="M186.925 11.376V36H183.301C182.517 36 182.021 35.64 181.813 34.92L181.405 32.952C180.397 33.976 179.285 34.808 178.069 35.448C176.853 36.072 175.421 36.384 173.773 36.384C172.429 36.384 171.237 36.16 170.197 35.712C169.173 35.248 168.309 34.6 167.605 33.768C166.901 32.936 166.365 31.952 165.997 30.816C165.645 29.664 165.469 28.4 165.469 27.024V11.376H171.397V27.024C171.397 28.528 171.741 29.696 172.429 30.528C173.133 31.344 174.181 31.752 175.573 31.752C176.597 31.752 177.557 31.528 178.453 31.08C179.349 30.616 180.197 29.984 180.997 29.184V11.376H186.925Z" fill="#141414"/>
<path d="M192.803 36V11.376H196.427C197.195 11.376 197.699 11.736 197.939 12.456L198.323 14.28C198.755 13.8 199.203 13.36 199.667 12.96C200.147 12.56 200.651 12.216 201.179 11.928C201.723 11.64 202.299 11.416 202.907 11.256C203.531 11.08 204.211 10.992 204.947 10.992C206.499 10.992 207.771 11.416 208.763 12.264C209.771 13.096 210.523 14.208 211.019 15.6C211.403 14.784 211.883 14.088 212.459 13.512C213.035 12.92 213.667 12.44 214.355 12.072C215.043 11.704 215.771 11.432 216.539 11.256C217.323 11.08 218.107 10.992 218.891 10.992C220.251 10.992 221.459 11.2 222.515 11.616C223.571 12.032 224.459 12.64 225.179 13.44C225.899 14.24 226.443 15.216 226.811 16.368C227.195 17.52 227.387 18.84 227.387 20.328V36H221.459V20.328C221.459 18.76 221.115 17.584 220.427 16.8C219.739 16 218.731 15.6 217.403 15.6C216.795 15.6 216.227 15.704 215.699 15.912C215.187 16.12 214.731 16.424 214.331 16.824C213.947 17.208 213.643 17.696 213.419 18.288C213.195 18.88 213.083 19.56 213.083 20.328V36H207.131V20.328C207.131 18.68 206.795 17.48 206.123 16.728C205.467 15.976 204.499 15.6 203.219 15.6C202.355 15.6 201.547 15.816 200.795 16.248C200.059 16.664 199.371 17.24 198.731 17.976V36H192.803Z" fill="#141414"/>
</svg>
